<svg width="424" height="69" viewBox="0 0 424 69" fill="none" xmlns="http://www.w3.org/2000/svg">
<g clip-path="url(#clip0)">
<path d="M132.4 22.9C127 23.5 122.6 27.9 122 33.3C121.2 40.4 126.8 46.4 133.7 46.4C135.8 46.4 137.9 45.8 139.7 44.8C140.6 44.3 141 43.1 140.5 42.2C140 41.1 138.7 40.8 137.7 41.4C136.5 42.1 135.1 42.5 133.7 42.5C130.7 42.5 128.1 40.8 126.8 38.3C126.7 38.1 126.8 37.8 127.1 37.8H143.4C144.4 37.8 145.2 37.1 145.3 36.2C145.3 36 145.4 35.9 145.4 35.7C145.4 35.4 145.4 35 145.4 34.7C145.6 27.7 139.5 22.1 132.4 22.9ZM133.8 26.8C137.7 26.8 140.9 29.6 141.5 33.4C141.5 33.6 141.4 33.8 141.1 33.8H126.8C126.3 33.8 126 33.4 126.1 32.9C127 29.4 130.1 26.8 133.8 26.8Z" fill="#3F3460"/>
<path d="M213.6 42.5C211 42.5 208.8 40.4 208.8 37.7V17.5C208.8 16.4 207.9 15.5 206.8 15.5C205.7 15.5 204.8 16.4 204.8 17.5V37.7C204.8 42.5 208.7 46.4 213.5 46.4C214.6 46.4 215.5 45.5 215.5 44.4C215.6 43.3 214.7 42.5 213.6 42.5Z" fill="#3F3460"/>
<path d="M162.8 42.5C160.2 42.5 158.1 40.3 158.1 37.7V28.2C158.1 27.9 158.4 27.6 158.7 27.6H162.2C163.2 27.6 164.2 26.8 164.3 25.8C164.4 24.6 163.5 23.6 162.3 23.6H158.8C158.5 23.6 158.2 23.3 158.2 23V19.4C158.2 18.4 157.4 17.4 156.4 17.3C155.2 17.2 154.2 18.1 154.2 19.3V23.6V37.7C154.2 42.5 158.1 46.4 162.9 46.4C164.1 46.4 165 45.4 164.9 44.2C164.7 43.2 163.8 42.5 162.8 42.5Z" fill="#3F3460"/>
<path d="M185 22.9C177.9 22.7 172.2 28.7 172.9 35.9C173.5 41.4 177.9 45.8 183.4 46.4C186.7 46.7 189.8 45.7 192.1 43.8C192.3 43.7 192.5 43.8 192.5 44V44.4C192.5 45.4 193.3 46.4 194.3 46.5C195.5 46.6 196.5 45.7 196.5 44.5V35C196.4 28.5 191.4 23.1 185 22.9ZM184.6 42.5C180.3 42.5 176.8 39 176.8 34.7C176.8 30.4 180.3 26.9 184.6 26.9C188.9 26.9 192.4 30.4 192.4 34.7C192.5 38.9 188.9 42.5 184.6 42.5Z" fill="#3F3460"/>
<path d="M278.7 22.9C271.6 22.7 265.9 28.7 266.6 35.9C267.2 41.4 271.6 45.8 277.1 46.4C280.3 46.7 283.2 45.8 285.5 44.1C285.8 43.9 286.2 44.1 286.2 44.4C286.2 45.4 286.8 46.2 287.8 46.4C289.1 46.6 290.2 45.7 290.2 44.5V35C290.2 28.5 285.2 23.1 278.7 22.9ZM278.4 42.5C274.1 42.5 270.6 39 270.6 34.7C270.6 30.4 274.1 26.9 278.4 26.9C282.7 26.9 286.2 30.4 286.2 34.7C286.2 38.9 282.7 42.5 278.4 42.5Z" fill="#3F3460"/>
<path d="M394.7 22.8C392.3 22.7 390.1 23.5 388.3 24.7C388.1 24.8 387.9 24.7 387.9 24.5C387.9 23.5 387.3 22.7 386.3 22.5C385 22.3 383.9 23.2 383.9 24.4V34.2C383.9 34.3 383.9 34.3 383.9 34.4C383.9 34.5 383.9 34.5 383.9 34.6V44.3C383.9 45.3 384.7 46.3 385.7 46.4C386.9 46.5 387.9 45.6 387.9 44.4V34.6C387.9 34.5 387.9 34.5 387.9 34.4C387.9 34.3 387.9 34.3 387.9 34.2V33.4C387.9 29.9 390.6 26.9 394.1 26.7C397.8 26.5 400.9 29.5 400.9 33.2V44.3C400.9 45.3 401.7 46.3 402.7 46.4C403.9 46.5 404.9 45.6 404.9 44.4V33.5C404.9 27.8 400.4 23 394.7 22.8Z" fill="#3F3460"/>
<path d="M248.4 26.8C250.8 26.8 253 27.9 254.5 29.8C255.2 30.7 256.4 30.8 257.3 30.1C258.2 29.4 258.3 28.2 257.6 27.3C255.3 24.5 252 22.8 248.4 22.8C241.9 22.8 236.6 28.1 236.6 34.6C236.6 41.1 241.9 46.4 248.4 46.4C252 46.4 255.4 44.8 257.6 41.9C258.3 41 258.1 39.8 257.3 39.1C256.5 38.4 255.2 38.6 254.5 39.4C253 41.3 250.8 42.4 248.4 42.4C244.1 42.4 240.6 38.9 240.6 34.6C240.6 30.3 244.1 26.8 248.4 26.8Z" fill="#3F3460"/>
<path d="M226.1 24.6C225 24.6 224.1 25.5 224.1 26.6V44.5C224.1 45.6 225 46.5 226.1 46.5C227.2 46.5 228.1 45.6 228.1 44.5V26.5C228.1 25.5 227.2 24.6 226.1 24.6Z" fill="#3F3460"/>
<path d="M226.1 15.3C224.5 15.3 223.3 16.6 223.3 18.1C223.3 19.7 224.6 20.9 226.1 20.9C227.7 20.9 228.9 19.6 228.9 18.1C228.9 16.5 227.6 15.3 226.1 15.3Z" fill="#3F3460"/>
<path d="M373.6 24.6C372.5 24.6 371.6 25.5 371.6 26.6V44.5C371.6 45.6 372.5 46.5 373.6 46.5C374.7 46.5 375.6 45.6 375.6 44.5V26.5C375.6 25.5 374.7 24.6 373.6 24.6Z" fill="#3F3460"/>
<path d="M373.6 15.3C372 15.3 370.8 16.6 370.8 18.1C370.8 19.7 372.1 20.9 373.6 20.9C375.2 20.9 376.4 19.6 376.4 18.1C376.4 16.5 375.1 15.3 373.6 15.3Z" fill="#3F3460"/>
<path d="M92 34.9V51.8C92 53 93 53.9 94.2 53.8C95.2 53.7 96 52.8 96 51.7V44C96 43.8 96.2 43.7 96.4 43.8C98.7 45.7 101.8 46.7 105.1 46.4C110.6 45.8 115 41.4 115.6 35.9C116.3 28.7 110.6 22.7 103.5 22.9C97 23.1 92 28.5 92 34.9ZM96 34.6C96 30.3 99.5 26.8 103.8 26.8C108.1 26.8 111.6 30.3 111.6 34.6C111.6 38.9 108.1 42.4 103.8 42.4C99.5 42.5 96 38.9 96 34.6Z" fill="#3F3460"/>
<path d="M309.1 34.9V51.8C309.1 53 310.1 53.9 311.3 53.8C312.3 53.7 313.1 52.8 313.1 51.7V44C313.1 43.8 313.3 43.7 313.5 43.8C315.8 45.7 318.9 46.7 322.2 46.4C327.7 45.8 332.1 41.4 332.7 35.9C333.4 28.7 327.7 22.7 320.6 22.9C314.1 23.1 309.1 28.5 309.1 34.9ZM313.1 34.6C313.1 30.3 316.6 26.8 320.9 26.8C325.2 26.8 328.7 30.3 328.7 34.6C328.7 38.9 325.2 42.4 320.9 42.4C316.6 42.5 313.1 38.9 313.1 34.6Z" fill="#3F3460"/>
<path d="M351.7 22.9C344.6 22.7 338.9 28.7 339.6 35.9C340.2 41.4 344.6 45.8 350.1 46.4C353.3 46.7 356.2 45.8 358.5 44.1C358.8 43.9 359.2 44.1 359.2 44.4C359.2 45.4 359.8 46.2 360.8 46.4C362.1 46.6 363.2 45.7 363.2 44.5V35C363.1 28.5 358.1 23.1 351.7 22.9ZM351.3 42.5C347 42.5 343.5 39 343.5 34.7C343.5 30.4 347 26.9 351.3 26.9C355.6 26.9 359.1 30.4 359.1 34.7C359.1 38.9 355.6 42.5 351.3 42.5Z" fill="#3F3460"/>
<path d="M421.5 42.5C418.9 42.5 416.8 40.3 416.8 37.7V28.2C416.8 27.9 417.1 27.6 417.4 27.6H420.9C421.9 27.6 422.9 26.8 423 25.8C423.1 24.6 422.2 23.6 421 23.6H417.5C417.2 23.6 416.9 23.3 416.9 23V19.4C416.9 18.4 416.1 17.4 415.1 17.3C413.9 17.2 412.9 18.1 412.9 19.3V23.6V37.7C412.9 42.5 416.8 46.4 421.6 46.4C422.8 46.4 423.7 45.4 423.6 44.2C423.4 43.2 422.5 42.5 421.5 42.5Z" fill="#3F3460"/>
<path d="M38.5 25.9C39.7 26.5 41.1 26 41.5 24.9C44.2 15.5 46 5.6 30.7 0.100001C30 -0.199999 29.3 0.200001 29.1 0.800001C28.6 2.5 28.3 3.6 28.3 3.6C26.4 2.3 23.2 1.7 21.7 1.4C21.2 1.3 20.7 1.5 20.5 1.8C15.4 9 13.9 14.7 38.5 25.9Z" fill="#EA5C5A"/>
<path d="M33.7 29.1C23.6 26 18.6 19.1 12.1 19.5C5.49999 20 4.29999 28.4 0.499989 32.1C-0.100011 32.7 -0.100011 33.7 0.599989 34.4C4.19999 37.9 5.19999 47.4 15.2 43.4C24.7 39.5 28 34.6 34 31.9C35.2 31.3 35.1 29.6 33.7 29.1Z" fill="#645EA8"/>
<path d="M47.6 29.9C50.2 30.9 56.3 32.8 65.2 33.7C78.5 35.1 71.5 15.1 60.4 12.5C49.6 10.1 47.3 18 46.3 28.1C46.2 28.9 46.7 29.6 47.6 29.9Z" fill="#F9BC3C"/>
<path d="M40.9 38.4C40.7 37.1 39 36.2 38.1 37C28.1 45.4 15.1 49.3 15.2 54.1C15.3 59.3 18.1 60.6 21.3 60.7C19 66.2 33.1 73.4 36 64.7C37.5 68.5 48.5 68.4 44.6 54.4C42.4 46.2 41.4 41.2 40.9 38.4Z" fill="#31A8E1"/>
<path d="M73.1 45.2C70.8 39 56.6 37.4 48.3 35.2C47.4 35 46.6 35.7 47 36.6C49.6 43 49.1 52.3 53 58.5C57.3 65.4 67.1 61.5 65.5 54.5C69.4 55.6 75.6 51.8 73.1 45.2Z" fill="#7DC05A"/>
</g>
<defs>
<clipPath id="clip0">
<rect width="423.5" height="68.7" fill="white"/>
</clipPath>
</defs>
</svg>
