<svg width="30" height="31" viewBox="0 0 30 31" fill="none" xmlns="http://www.w3.org/2000/svg">
<path d="M0.298343 12.3814C-0.030208 12.6213 -0.0992037 13.0878 0.150495 13.4131L1.03101 14.5597C1.23143 14.8226 1.23143 15.184 1.03101 15.4435L0.153781 16.5902C-0.0959182 16.9155 -0.0269225 17.3787 0.301629 17.6218L1.4647 18.4728C1.73083 18.6666 1.83268 19.0149 1.7144 19.3237L1.192 20.6708C1.04415 21.0519 1.24128 21.4823 1.62569 21.6203L2.97603 22.1033C3.28816 22.215 3.48529 22.5205 3.45572 22.8491L3.33087 24.2881C3.29473 24.6955 3.60357 25.0537 4.01426 25.0767L5.44017 25.1588C5.76872 25.1785 6.0447 25.4184 6.11041 25.7403L6.39625 27.1531C6.47839 27.5572 6.87594 27.8102 7.27677 27.7182L8.66654 27.3929C8.98852 27.3174 9.32364 27.4685 9.47806 27.7642L10.145 29.0357C10.3356 29.4004 10.7923 29.5351 11.1504 29.3314L12.389 28.6283C12.6781 28.464 13.0396 28.5166 13.2728 28.7564L14.2683 29.7848C14.5542 30.0805 15.0273 30.0805 15.3131 29.7848L16.3086 28.7564C16.5386 28.5166 16.9033 28.464 17.1924 28.6283L18.4311 29.3314C18.7892 29.5351 19.2426 29.4004 19.4364 29.0357L20.1034 27.7642C20.2578 27.4718 20.5897 27.3174 20.9149 27.3929L22.3047 27.7182C22.7055 27.8102 23.1031 27.5572 23.1852 27.1531L23.4711 25.7403C23.5368 25.4151 23.8127 25.1785 24.1413 25.1588L25.5672 25.0767C25.9779 25.0537 26.2867 24.6955 26.2506 24.2881L26.1257 22.8491C26.0962 22.5205 26.2933 22.2117 26.6054 22.1033L27.9558 21.6203C28.3402 21.4823 28.5373 21.0552 28.3895 20.6708L27.8671 19.3237C27.7488 19.0149 27.8506 18.6666 28.1168 18.4728L29.2798 17.6218C29.6084 17.382 29.6774 16.9155 29.4277 16.5902L28.5505 15.4435C28.35 15.184 28.35 14.8193 28.5505 14.5597L29.431 13.4131C29.6807 13.0878 29.6117 12.6246 29.2831 12.3814L28.12 11.5305C27.8539 11.3367 27.7521 10.9884 27.8703 10.6796L28.3927 9.33249C28.5406 8.95138 28.3435 8.52097 27.9591 8.38298L26.6087 7.90001C26.2966 7.7883 26.0995 7.48275 26.129 7.1542L26.2539 5.71515C26.29 5.30774 25.9812 4.94962 25.5705 4.92662L24.1446 4.84449C23.8127 4.82477 23.5368 4.58493 23.4743 4.26295L23.1885 2.85018C23.1064 2.44935 22.7088 2.19308 22.3113 2.28507L20.9215 2.61034C20.5995 2.68591 20.2677 2.53477 20.1133 2.23908L19.4463 0.970869C19.2557 0.606177 18.7991 0.474756 18.4442 0.675173L17.2023 1.37827C16.9132 1.54255 16.5518 1.48998 16.3185 1.25014L15.323 0.221772C15.0371 -0.073924 14.564 -0.073924 14.2782 0.221772L13.2827 1.25014C13.0527 1.48998 12.688 1.54255 12.3989 1.37827L11.157 0.675173C10.7988 0.471471 10.3454 0.606177 10.1549 0.970869L9.48792 2.23908C9.3335 2.53149 9.00166 2.68591 8.67968 2.61034L7.28991 2.28507C6.88908 2.19308 6.49153 2.44606 6.41268 2.85018L6.12684 4.26295C6.06113 4.58822 5.78515 4.82806 5.45659 4.84449L4.03068 4.92662C3.61999 4.94962 3.31116 5.30774 3.3473 5.71515L3.47215 7.1542C3.50172 7.48275 3.30459 7.79159 2.99246 7.90001L1.64212 8.38298C1.25771 8.52097 1.06058 8.94809 1.20843 9.33249L1.73083 10.6796C1.8491 10.9884 1.74725 11.3367 1.48113 11.5305L0.318056 12.3814H0.298343Z" fill="white"/>
<path d="M7.12561 9.19458L14.8006 22.2512L22.4755 9.19458H19.4068L14.8039 17.0305L10.1614 9.19458H7.1289H7.12561Z" fill="#3DD491"/>
<path d="M10.1582 9.19458L14.8203 17.1324L19.4069 9.19458H16.5781L14.8203 12.2468L13.0232 9.19458H10.1582Z" fill="#2C3D4F"/>
</svg>
