<svg data-v-2cb57da0="" version="1.0" xmlns="http://www.w3.org/2000/svg" xmlns:xlink="http://www.w3.org/1999/xlink" width="100%" height="100%" viewBox="0 0 340.000000 250.000000" preserveAspectRatio="xMidYMid meet" color-interpolation-filters="sRGB" style="margin: auto;backgrpund: #fff;" fill="#fff"><rect data-v-2cb57da0="" x="0" y="0" width="100%" height="100%" fill="#fff" fill-opacity="0" class="background"></rect> <rect data-v-2cb57da0="" x="0" y="0" width="100%" height="100%" fill="url(#watermark)" fill-opacity="1" class="watermarklayer"></rect> <g data-v-2cb57da0="" fill="#615DF5" class="icon-text-wrapper icon-svg-group iconsvg" transform="translate(48.38999938964844,94.99880027770996)"><g class="iconsvg-imagesvg" transform="matrix(1,0,0,1,0,0)" opacity="1"><g><rect fill="#615DF5" fill-opacity="0" stroke-width="2" x="0" y="0" width="60" height="60.00240009600384" class="image-rect"></rect> <svg x="0" y="0" width="60" height="60.00240009600384" filtersec="colorsb2819123136" class="image-svg-svg primary"><svg xmlns="http://www.w3.org/2000/svg" viewBox="13.189994812011719 9 961.3399047851562 961.3800048828125"><path opacity=".6" fill="#615DF5" d="M974.52 119.83C974.52 58.65 924.93 9 863.68 9H341.2c-61.24 0-110.85 49.65-110.85 110.83v522.54c0 61.24 49.61 110.83 110.85 110.83h522.48c61.25 0 110.85-49.58 110.85-110.83V119.83z"></path><path opacity=".81" fill="#615DF5" d="M970.29 825.97c0-13.91-11.28-25.15-25.17-25.15H826.33c-13.88 0-25.2 11.25-25.2 25.15v118.79c0 13.91 11.32 25.19 25.2 25.19h118.78c13.89 0 25.17-11.28 25.17-25.19V825.97zM202.19 25.49c0-8.93-7.27-16.2-16.21-16.2h-76.62c-8.98 0-16.22 7.27-16.22 16.2v76.59c0 9 7.24 16.25 16.22 16.25h76.62c8.94 0 16.21-7.25 16.21-16.25V25.49z"></path><path opacity=".8" fill="#615DF5" d="M612.85 459.97c0-49.35-39.96-89.29-89.29-89.29h-421.1c-49.29 0-89.27 39.94-89.27 89.29v421.08c0 49.35 39.99 89.33 89.27 89.33h421.1c49.32 0 89.29-39.98 89.29-89.33V459.97z"></path></svg></svg> <!----></g></g> <g transform="translate(67,17.53619956970215)"><g data-gra="path-name" fill-rule="" class="tp-name iconsvg-namesvg" opacity="1" transform="matrix(1,0,0,1,0,0)"><g transform="scale(1)"><g><path d="M18.15 0L12.32 0 7.69-16.32 7.55-16.32Q7.87-12.15 7.87-9.84L7.87-9.84 7.87 0 2.45 0 2.45-22.65 10.6-22.65 15.33-6.57 15.45-6.57 20.08-22.65 28.25-22.65 28.25 0 22.62 0 22.62-9.93Q22.62-10.71 22.65-11.65 22.67-12.6 22.86-16.29L22.86-16.29 22.72-16.29 18.15 0ZM48.42 0L44.23 0 43.06-2.32 42.94-2.32Q41.71-0.81 40.44-0.25 39.17 0.31 37.16 0.31L37.16 0.31Q34.68 0.31 33.25-1.18 31.83-2.67 31.83-5.36L31.83-5.36Q31.83-8.17 33.78-9.54 35.73-10.91 39.44-11.08L39.44-11.08 42.37-11.17 42.37-11.42Q42.37-13.59 40.23-13.59L40.23-13.59Q38.31-13.59 35.35-12.29L35.35-12.29 33.6-16.29Q36.66-17.87 41.34-17.87L41.34-17.87Q44.72-17.87 46.57-16.19 48.42-14.52 48.42-11.51L48.42-11.51 48.42 0ZM39.73-3.97L39.73-3.97Q40.83-3.97 41.61-4.66 42.4-5.36 42.4-6.48L42.4-6.48 42.4-7.84 41-7.78Q38.01-7.67 38.01-5.58L38.01-5.58Q38.01-3.97 39.73-3.97ZM58 0.31L58 0.31Q56.13 0.31 54.72-0.76 53.32-1.83 52.55-3.9 51.79-5.98 51.79-8.76L51.79-8.76Q51.79-13.03 53.51-15.45 55.23-17.87 58.23-17.87L58.23-17.87Q59.71-17.87 60.81-17.28 61.92-16.69 62.84-15.29L62.84-15.29 62.96-15.29Q62.67-17.36 62.67-19.42L62.67-19.42 62.67-24.11 68.77-24.11 68.77 0 64.2 0 62.9-2.22 62.67-2.22Q61.1 0.31 58 0.31ZM60.48-4.48L60.48-4.48Q61.94-4.48 62.53-5.39 63.13-6.31 63.18-8.21L63.18-8.21 63.18-8.69Q63.18-11.02 62.51-12 61.84-12.99 60.42-12.99L60.42-12.99Q59.23-12.99 58.57-11.86 57.91-10.74 57.91-8.66L57.91-8.66Q57.91-6.62 58.57-5.55 59.24-4.48 60.48-4.48ZM81.43 0.31L81.43 0.31Q77.05 0.31 74.62-2.02 72.2-4.35 72.2-8.66L72.2-8.66Q72.2-13.11 74.44-15.49 76.69-17.87 80.86-17.87L80.86-17.87Q84.82-17.87 86.99-15.8 89.15-13.73 89.15-9.84L89.15-9.84 89.15-7.14 78.32-7.14Q78.38-5.67 79.39-4.83 80.41-4 82.16-4L82.16-4Q83.76-4 85.1-4.3 86.44-4.6 88-5.33L88-5.33 88-0.98Q86.58-0.25 85.06 0.03 83.54 0.31 81.43 0.31ZM81.07-13.74L81.07-13.74Q80.01-13.74 79.28-13.07 78.56-12.4 78.44-10.96L78.44-10.96 83.65-10.96Q83.62-12.23 82.93-12.99 82.24-13.74 81.07-13.74ZM121.77 0L115.07 0 113.96-4.25 106.6-4.25 105.45 0 98.72 0 106.12-22.75 114.28-22.75 121.77 0ZM107.87-9.27L112.69-9.27 111.71-12.99Q111.37-14.23 110.88-16.19 110.39-18.16 110.24-19.01L110.24-19.01Q110.1-18.22 109.69-16.41 109.28-14.6 107.87-9.27L107.87-9.27ZM148.9-15.45L148.9-15.45Q148.9-11.65 146.66-9.58 144.42-7.52 140.3-7.52L140.3-7.52 138.58-7.52 138.58 0 132.46 0 132.46-22.65 140.3-22.65Q144.59-22.65 146.75-20.78 148.9-18.9 148.9-15.45ZM138.58-17.71L138.58-12.51 139.7-12.51Q141.07-12.51 141.89-13.28 142.7-14.05 142.7-15.42L142.7-15.42Q142.7-17.71 140.16-17.71L140.16-17.71 138.58-17.71ZM158.24-17.56L158.24 0 152.18 0 152.18-17.56 158.24-17.56ZM152.03-21.93L152.03-21.93Q152.03-23.29 152.79-23.96 153.55-24.62 155.24-24.62L155.24-24.62Q156.93-24.62 157.7-23.94 158.48-23.26 158.48-21.93L158.48-21.93Q158.48-19.26 155.24-19.26L155.24-19.26Q152.03-19.26 152.03-21.93ZM170.95 0.31L170.95 0.31Q166.57 0.31 164.14-2.02 161.71-4.35 161.71-8.66L161.71-8.66Q161.71-13.11 163.96-15.49 166.21-17.87 170.38-17.87L170.38-17.87Q174.34-17.87 176.51-15.8 178.67-13.73 178.67-9.84L178.67-9.84 178.67-7.14 167.84-7.14Q167.9-5.67 168.91-4.83 169.93-4 171.68-4L171.68-4Q173.27-4 174.62-4.3 175.96-4.6 177.52-5.33L177.52-5.33 177.52-0.98Q176.1-0.25 174.58 0.03 173.06 0.31 170.95 0.31ZM170.59-13.74L170.59-13.74Q169.52-13.74 168.8-13.07 168.08-12.4 167.96-10.96L167.96-10.96 173.17-10.96Q173.14-12.23 172.45-12.99 171.76-13.74 170.59-13.74Z" transform="translate(-2.450000047683716, 24.6200008392334)"></path></g> <!----> <!----> <!----> <!----> <!----> <!----> <!----></g></g> <!----></g></g><defs v-gra="od"></defs></svg>